<svg width="22" height="22" viewBox="0 0 22 22" fill="none" xmlns="http://www.w3.org/2000/svg">
<path d="M6.22921 6.40011V2.88583C6.22921 2.26446 6.47605 1.66855 6.91542 1.22918C7.35479 0.789805 7.95071 0.542969 8.57207 0.542969H13.2578C13.8791 0.542969 14.4751 0.789805 14.9144 1.22918C15.3538 1.66855 15.6006 2.26446 15.6006 2.88583V6.40011H19.1149C19.7363 6.40011 20.3322 6.64695 20.7716 7.08632C21.2109 7.52569 21.4578 8.1216 21.4578 8.74297V19.2858C21.4578 19.9072 21.2109 20.5031 20.7716 20.9425C20.3322 21.3818 19.7363 21.6287 19.1149 21.6287H2.71493C2.09356 21.6287 1.49765 21.3818 1.05828 20.9425C0.618906 20.5031 0.37207 19.9072 0.37207 19.2858V8.74297C0.37207 8.1216 0.618906 7.52569 1.05828 7.08632C1.49765 6.64695 2.09356 6.40011 2.71493 6.40011H6.22921ZM2.71493 8.74297V19.2858H19.1149V8.74297H15.5983V12.2573H13.2578V8.74297H8.57207V12.2573H6.22921V8.74297H2.71493ZM8.57207 6.40011H13.2578V2.88583H8.57207V6.40011Z" fill="#F77E23"/>
</svg>
