<svg width="16" height="14" viewBox="0 0 16 14" fill="none" xmlns="http://www.w3.org/2000/svg">
<path d="M1 2.75391C1.885 2.38391 3.154 1.98491 4.388 1.86091C5.718 1.72691 6.846 1.92391 7.5 2.61291V12.3589C6.565 11.8289 5.38 11.7559 4.287 11.8659C3.107 11.9859 1.917 12.3269 1 12.6769V2.75391ZM8.5 2.61291C9.154 1.92391 10.282 1.72691 11.612 1.86091C12.846 1.98491 14.115 2.38391 15 2.75391V12.6769C14.082 12.3269 12.893 11.9849 11.713 11.8669C10.619 11.7559 9.435 11.8279 8.5 12.3589V2.61291ZM8 1.70891C7.015 0.861906 5.587 0.735906 4.287 0.865906C2.773 1.01891 1.245 1.53791 0.293 1.97091C0.205649 2.01063 0.131575 2.07466 0.079621 2.15534C0.0276667 2.23602 2.65714e-05 2.32995 0 2.42591L0 13.4259C2.3162e-05 13.5096 0.0210371 13.5919 0.0611171 13.6653C0.101197 13.7387 0.159062 13.8009 0.229411 13.8462C0.29976 13.8915 0.380345 13.9184 0.463783 13.9245C0.547222 13.9305 0.630848 13.9155 0.707 13.8809C1.589 13.4809 3.01 12.9999 4.387 12.8609C5.796 12.7189 6.977 12.9479 7.61 13.7379C7.65685 13.7963 7.71622 13.8434 7.78372 13.8758C7.85122 13.9082 7.92513 13.925 8 13.925C8.07487 13.925 8.14878 13.9082 8.21628 13.8758C8.28378 13.8434 8.34315 13.7963 8.39 13.7379C9.023 12.9479 10.204 12.7189 11.612 12.8609C12.99 12.9999 14.412 13.4809 15.293 13.8809C15.3692 13.9155 15.4528 13.9305 15.5362 13.9245C15.6197 13.9184 15.7002 13.8915 15.7706 13.8462C15.8409 13.8009 15.8988 13.7387 15.9389 13.6653C15.979 13.5919 16 13.5096 16 13.4259V2.42591C16 2.32995 15.9723 2.23602 15.9204 2.15534C15.8684 2.07466 15.7944 2.01063 15.707 1.97091C14.755 1.53791 13.227 1.01891 11.713 0.865906C10.413 0.734906 8.985 0.861906 8 1.70891Z" fill="#F77E23"/>
</svg>
