<svg width="16" height="16" viewBox="0 0 16 16" fill="none" xmlns="http://www.w3.org/2000/svg">
<path d="M5.99967 2C5.11562 2 4.26777 2.35119 3.64265 2.97631C3.01753 3.60143 2.66634 4.44928 2.66634 5.33333C2.66634 6.21739 3.01753 7.06523 3.64265 7.69036C4.26777 8.31548 5.11562 8.66667 5.99967 8.66667C6.88373 8.66667 7.73158 8.31548 8.3567 7.69036C8.98182 7.06523 9.33301 6.21739 9.33301 5.33333C9.33301 4.44928 8.98182 3.60143 8.3567 2.97631C7.73158 2.35119 6.88373 2 5.99967 2ZM3.99967 5.33333C3.99967 4.8029 4.21039 4.29419 4.58546 3.91912C4.96053 3.54405 5.46924 3.33333 5.99967 3.33333C6.53011 3.33333 7.03882 3.54405 7.41389 3.91912C7.78896 4.29419 7.99967 4.8029 7.99967 5.33333C7.99967 5.86377 7.78896 6.37247 7.41389 6.74755C7.03882 7.12262 6.53011 7.33333 5.99967 7.33333C5.46924 7.33333 4.96053 7.12262 4.58546 6.74755C4.21039 6.37247 3.99967 5.86377 3.99967 5.33333ZM11.2717 5.47867C11.0842 5.38314 10.8768 5.33333 10.6663 5.33333V4C11.0874 4.00003 11.5024 4.09974 11.8775 4.29098C12.2525 4.48222 12.577 4.75955 12.8243 5.10028C13.0716 5.44101 13.2347 5.83545 13.3003 6.25133C13.3659 6.6672 13.332 7.0927 13.2016 7.49299C13.0711 7.89328 12.8477 8.25699 12.5497 8.55437C12.2517 8.85174 11.8875 9.07432 11.4869 9.2039C11.0863 9.33347 10.6607 9.36636 10.245 9.29987C9.82927 9.23337 9.43519 9.06939 9.09501 8.82133L9.88034 7.744C10.029 7.85221 10.1985 7.92849 10.3781 7.96806C10.5576 8.00762 10.7435 8.00961 10.9239 7.9739C11.1043 7.93819 11.2753 7.86555 11.4263 7.76055C11.5772 7.65555 11.7048 7.52046 11.8011 7.36376C11.8973 7.20707 11.9601 7.03216 11.9855 6.85003C12.0109 6.6679 11.9983 6.48248 11.9486 6.30544C11.8989 6.1284 11.8131 5.96356 11.6966 5.82128C11.5801 5.67899 11.4354 5.56235 11.2717 5.47867ZM13.3317 14C13.3315 13.2932 13.0506 12.6153 12.5508 12.1155C12.051 11.6157 11.3732 11.3348 10.6663 11.3347V10C11.7272 10.0002 12.7445 10.4217 13.4946 11.1718C14.2447 11.9219 14.6662 12.9392 14.6663 14H13.3317ZM10.6663 14H9.33301C9.33301 13.1159 8.98182 12.2681 8.3567 11.643C7.73158 11.0179 6.88373 10.6667 5.99967 10.6667C5.11562 10.6667 4.26777 11.0179 3.64265 11.643C3.01753 12.2681 2.66634 13.1159 2.66634 14H1.33301C1.33301 12.7623 1.82467 11.5753 2.69984 10.7002C3.57501 9.825 4.762 9.33333 5.99967 9.33333C7.23735 9.33333 8.42434 9.825 9.29951 10.7002C10.1747 11.5753 10.6663 12.7623 10.6663 14Z" fill="#F77E23"/>
</svg>
