<svg width="122" height="25" viewBox="0 0 122 25" fill="none" xmlns="http://www.w3.org/2000/svg">
<path d="M0.7224 24V2.5488H13.6784V5.7632H4.5272V11.8312H12.3336V15.0456H4.5272V24H0.7224ZM23.195 24.3936C21.8611 24.3936 20.6147 24.0656 19.4558 23.4096C18.2969 22.7317 17.3566 21.7696 16.635 20.5232C15.9134 19.2549 15.5526 17.7352 15.5526 15.964C15.5526 14.1709 15.9134 12.6512 16.635 11.4048C17.3566 10.1365 18.2969 9.1744 19.4558 8.5184C20.6147 7.84053 21.8611 7.5016 23.195 7.5016C24.5507 7.5016 25.8081 7.84053 26.967 8.5184C28.1259 9.1744 29.0662 10.1365 29.7878 11.4048C30.5094 12.6512 30.8702 14.1709 30.8702 15.964C30.8702 17.7352 30.5094 19.2549 29.7878 20.5232C29.0662 21.7696 28.1259 22.7317 26.967 23.4096C25.8081 24.0656 24.5507 24.3936 23.195 24.3936ZM23.195 21.3104C24.3758 21.3104 25.3051 20.8184 25.983 19.8344C26.6609 18.8504 26.9998 17.5603 26.9998 15.964C26.9998 14.3459 26.6609 13.0448 25.983 12.0608C25.3051 11.0768 24.3758 10.5848 23.195 10.5848C22.0142 10.5848 21.0849 11.0768 20.407 12.0608C19.751 13.0448 19.423 14.3459 19.423 15.964C19.423 17.5603 19.751 18.8504 20.407 19.8344C21.0849 20.8184 22.0142 21.3104 23.195 21.3104ZM39.3926 24.3936C37.6651 24.3936 36.4078 23.836 35.6206 22.7208C34.8334 21.6056 34.4398 20.0312 34.4398 17.9976V7.8952H38.2118V17.5056C38.2118 18.8395 38.4086 19.7797 38.8022 20.3264C39.1958 20.8731 39.8299 21.1464 40.7046 21.1464C41.4043 21.1464 42.0166 20.9715 42.5414 20.6216C43.088 20.2717 43.6675 19.7032 44.2798 18.916V7.8952H48.0518V24H44.9686L44.6734 21.6384H44.575C43.8752 22.4693 43.1099 23.1363 42.279 23.6392C41.448 24.1421 40.4859 24.3936 39.3926 24.3936ZM52.8296 24V7.8952H55.9456L56.208 10.06H56.3392C57.0608 9.36027 57.848 8.75893 58.7008 8.256C59.5536 7.75307 60.5266 7.5016 61.62 7.5016C63.3474 7.5016 64.6048 8.0592 65.392 9.1744C66.1792 10.2896 66.5728 11.864 66.5728 13.8976V24H62.8008V14.3896C62.8008 13.0557 62.604 12.1155 62.2104 11.5688C61.8168 11.0221 61.1717 10.7488 60.2752 10.7488C59.5754 10.7488 58.9522 10.9237 58.4056 11.2736C57.8808 11.6016 57.2794 12.0936 56.6016 12.7496V24H52.8296ZM76.8579 24.3936C74.9992 24.3936 73.6763 23.8579 72.8891 22.7864C72.1237 21.6931 71.7411 20.2827 71.7411 18.5552V10.88H69.4451V8.0592L71.9379 7.8952L72.3971 3.5H75.5459V7.8952H79.6459V10.88H75.5459V18.5552C75.5459 20.4357 76.3003 21.376 77.8091 21.376C78.0933 21.376 78.3885 21.3432 78.6947 21.2776C79.0008 21.1901 79.2632 21.1027 79.4819 21.0152L80.1379 23.8032C79.7005 23.9563 79.1976 24.0875 78.6291 24.1968C78.0824 24.328 77.492 24.3936 76.8579 24.3936ZM86.2335 24.3936C84.8341 24.3936 83.6861 23.9563 82.7895 23.0816C81.9149 22.2069 81.4775 21.0699 81.4775 19.6704C81.4775 17.9429 82.2319 16.6091 83.7407 15.6688C85.2495 14.7067 87.6549 14.0507 90.9567 13.7008C90.9349 12.848 90.7053 12.1155 90.2679 11.5032C89.8525 10.8691 89.0981 10.552 88.0047 10.552C87.2175 10.552 86.4413 10.7051 85.6759 11.0112C84.9325 11.3173 84.1999 11.6891 83.4783 12.1264L82.1007 9.6008C82.9973 9.03227 84.0031 8.54027 85.1183 8.1248C86.2554 7.70933 87.4581 7.5016 88.7263 7.5016C90.7381 7.5016 92.2359 8.10293 93.2199 9.3056C94.2258 10.4864 94.7287 12.2029 94.7287 14.4552V24H91.6127L91.3503 22.2288H91.2191C90.4975 22.8411 89.7213 23.3549 88.8903 23.7704C88.0813 24.1859 87.1957 24.3936 86.2335 24.3936ZM87.4471 21.4416C88.1031 21.4416 88.6935 21.2885 89.2183 20.9824C89.765 20.6544 90.3445 20.2171 90.9567 19.6704V16.0624C88.7701 16.3467 87.2503 16.7731 86.3975 17.3416C85.5447 17.8883 85.1183 18.5661 85.1183 19.3752C85.1183 20.0968 85.337 20.6216 85.7743 20.9496C86.2117 21.2776 86.7693 21.4416 87.4471 21.4416ZM99.2428 24V7.8952H103.015V24H99.2428ZM101.145 5.0744C100.467 5.0744 99.9207 4.8776 99.5052 4.484C99.0898 4.0904 98.882 3.5656 98.882 2.9096C98.882 2.27547 99.0898 1.7616 99.5052 1.368C99.9207 0.9744 100.467 0.7776 101.145 0.7776C101.823 0.7776 102.37 0.9744 102.785 1.368C103.201 1.7616 103.408 2.27547 103.408 2.9096C103.408 3.5656 103.201 4.0904 102.785 4.484C102.37 4.8776 101.823 5.0744 101.145 5.0744ZM107.827 24V7.8952H110.943L111.206 10.06H111.337C112.058 9.36027 112.846 8.75893 113.698 8.256C114.551 7.75307 115.524 7.5016 116.618 7.5016C118.345 7.5016 119.602 8.0592 120.39 9.1744C121.177 10.2896 121.57 11.864 121.57 13.8976V24H117.798V14.3896C117.798 13.0557 117.602 12.1155 117.208 11.5688C116.814 11.0221 116.169 10.7488 115.273 10.7488C114.573 10.7488 113.95 10.9237 113.403 11.2736C112.878 11.6016 112.277 12.0936 111.599 12.7496V24H107.827Z" fill="#F77E23"/>
</svg>
