<svg width="30" height="30" viewBox="0 0 30 30" fill="none" xmlns="http://www.w3.org/2000/svg">
<path fill-rule="evenodd" clip-rule="evenodd" d="M21.2498 9.06255L14.9998 18.4376L8.74978 9.06255C8.66771 8.93944 8.56218 8.83369 8.43924 8.75136C8.3163 8.66903 8.17834 8.61171 8.03325 8.5827C7.88816 8.55368 7.73877 8.55352 7.59362 8.58224C7.44847 8.61095 7.3104 8.66798 7.18728 8.75005C7.06417 8.83213 6.95842 8.93765 6.87609 9.06059C6.79376 9.18353 6.73645 9.32149 6.70743 9.46658C6.67841 9.61167 6.67825 9.76106 6.70697 9.90621C6.73568 10.0514 6.79271 10.1894 6.87478 10.3126L13.9598 20.9401C14.0739 21.1112 14.2286 21.2516 14.41 21.3487C14.5914 21.4458 14.794 21.4966 14.9998 21.4966C15.2055 21.4966 15.4081 21.4458 15.5896 21.3487C15.771 21.2516 15.9256 21.1112 16.0398 20.9401L23.1248 10.3126C23.2069 10.1894 23.2639 10.0514 23.2926 9.90621C23.3213 9.76106 23.3212 9.61167 23.2921 9.46658C23.2631 9.32149 23.2058 9.18353 23.1235 9.06059C23.0411 8.93765 22.9354 8.83213 22.8123 8.75005C22.6892 8.66798 22.5511 8.61095 22.4059 8.58224C22.2608 8.55352 22.1114 8.55368 21.9663 8.5827C21.8212 8.61171 21.6833 8.66903 21.5603 8.75136C21.4374 8.83369 21.3319 8.93944 21.2498 9.06255Z" fill="white"/>
</svg>
