<svg width="30" height="30" viewBox="0 0 30 30" fill="none" xmlns="http://www.w3.org/2000/svg">
<path d="M11.25 3.75C9.5924 3.75 8.00269 4.40848 6.83058 5.58058C5.65848 6.75269 5 8.3424 5 10C5 11.6576 5.65848 13.2473 6.83058 14.4194C8.00269 15.5915 9.5924 16.25 11.25 16.25C12.9076 16.25 14.4973 15.5915 15.6694 14.4194C16.8415 13.2473 17.5 11.6576 17.5 10C17.5 8.3424 16.8415 6.75269 15.6694 5.58058C14.4973 4.40848 12.9076 3.75 11.25 3.75ZM7.5 10C7.5 9.00544 7.89509 8.05161 8.59835 7.34835C9.30161 6.64509 10.2554 6.25 11.25 6.25C12.2446 6.25 13.1984 6.64509 13.9017 7.34835C14.6049 8.05161 15 9.00544 15 10C15 10.9946 14.6049 11.9484 13.9017 12.6517C13.1984 13.3549 12.2446 13.75 11.25 13.75C10.2554 13.75 9.30161 13.3549 8.59835 12.6517C7.89509 11.9484 7.5 10.9946 7.5 10ZM21.135 10.2725C20.7835 10.0934 20.3945 10 20 10V7.5C20.7894 7.50005 21.5676 7.68702 22.2708 8.04559C22.9741 8.40417 23.5825 8.92416 24.0462 9.56303C24.5099 10.2019 24.8157 10.9415 24.9386 11.7212C25.0616 12.501 24.9982 13.2988 24.7536 14.0494C24.5089 14.7999 24.0901 15.4819 23.5313 16.0394C22.9725 16.597 22.2896 17.0144 21.5385 17.2573C20.7874 17.5003 19.9895 17.5619 19.21 17.4372C18.4305 17.3126 17.6916 17.0051 17.0537 16.54L18.5263 14.52C18.805 14.7229 19.1228 14.8659 19.4595 14.9401C19.7962 15.0143 20.1446 15.018 20.4829 14.9511C20.8211 14.8841 21.1418 14.7479 21.4249 14.551C21.7079 14.3542 21.9472 14.1009 22.1277 13.8071C22.3081 13.5132 22.4258 13.1853 22.4734 12.8438C22.521 12.5023 22.4975 12.1547 22.4043 11.8227C22.311 11.4908 22.1501 11.1817 21.9317 10.9149C21.7133 10.6481 21.442 10.4294 21.135 10.2725ZM24.9975 26.25C24.9972 24.9247 24.4705 23.6537 23.5334 22.7166C22.5963 21.7795 21.3253 21.2528 20 21.2525V18.75C21.989 18.7503 23.8965 19.5406 25.3029 20.9471C26.7094 22.3535 27.4997 24.261 27.5 26.25H24.9975ZM20 26.25H17.5C17.5 24.5924 16.8415 23.0027 15.6694 21.8306C14.4973 20.6585 12.9076 20 11.25 20C9.5924 20 8.00269 20.6585 6.83058 21.8306C5.65848 23.0027 5 24.5924 5 26.25H2.5C2.5 23.9294 3.42187 21.7038 5.06282 20.0628C6.70376 18.4219 8.92936 17.5 11.25 17.5C13.5706 17.5 15.7962 18.4219 17.4372 20.0628C19.0781 21.7038 20 23.9294 20 26.25Z" fill="#F77E23"/>
</svg>
