<svg width="16" height="15" viewBox="0 0 16 15" fill="none" xmlns="http://www.w3.org/2000/svg">
<path d="M14.9623 5.20694L10.4992 4.55831L8.50411 0.513581C8.44962 0.402839 8.35997 0.31319 8.24923 0.258698C7.9715 0.121589 7.634 0.235846 7.49513 0.513581L5.50001 4.55831L1.03693 5.20694C0.913879 5.22452 0.801379 5.28253 0.715246 5.37042C0.611116 5.47744 0.553736 5.62143 0.555714 5.77074C0.557691 5.92006 0.618865 6.06247 0.725793 6.16671L3.95489 9.31495L3.192 13.7605C3.17411 13.8639 3.18556 13.9702 3.22504 14.0675C3.26452 14.1647 3.33045 14.2489 3.41537 14.3106C3.50028 14.3723 3.60078 14.4089 3.70546 14.4164C3.81014 14.4239 3.91482 14.4018 4.00763 14.3528L7.99962 12.254L11.9916 14.3528C12.1006 14.4108 12.2272 14.4302 12.3484 14.4091C12.6543 14.3564 12.86 14.0663 12.8072 13.7605L12.0443 9.31495L15.2734 6.16671C15.3613 6.08057 15.4193 5.96807 15.4369 5.84503C15.4844 5.53741 15.2699 5.25264 14.9623 5.20694ZM10.6856 8.87198L11.3201 12.5687L7.99962 10.8249L4.67911 12.5704L5.31368 8.87374L2.62775 6.2546L6.34025 5.71495L7.99962 2.35225L9.659 5.71495L13.3715 6.2546L10.6856 8.87198Z" fill="#F77E23"/>
</svg>
