<svg width="24" height="25" viewBox="0 0 24 25" fill="none" xmlns="http://www.w3.org/2000/svg">
<path d="M21.1604 17.0558L19.1604 15.9058L20.0504 15.6658C20.1811 15.6353 20.3043 15.5789 20.4127 15.4998C20.5212 15.4207 20.6126 15.3206 20.6815 15.2055C20.7504 15.0903 20.7955 14.9624 20.8139 14.8295C20.8324 14.6966 20.8239 14.5613 20.789 14.4317C20.7541 14.3021 20.6935 14.1809 20.6107 14.0752C20.528 13.9696 20.4248 13.8817 20.3073 13.8167C20.1899 13.7518 20.0606 13.7112 19.9271 13.6972C19.7936 13.6833 19.6587 13.6964 19.5304 13.7358L16.7104 14.4958L14.0004 12.9258L16.7104 11.3558L19.5304 12.1158H19.7904C20.0556 12.1503 20.3236 12.078 20.5355 11.9148C20.7475 11.7517 20.8859 11.511 20.9204 11.2458C20.9548 10.9806 20.8825 10.7125 20.7194 10.5006C20.5562 10.2887 20.3156 10.1503 20.0504 10.1158L19.1604 9.92578L21.1604 8.77578C21.2746 8.71012 21.3748 8.6226 21.4552 8.51821C21.5357 8.41383 21.5947 8.29463 21.6291 8.16741C21.6635 8.04019 21.6724 7.90746 21.6555 7.77678C21.6385 7.6461 21.596 7.52003 21.5304 7.40578C21.4647 7.29153 21.3772 7.19133 21.2728 7.11091C21.1684 7.03048 21.0492 6.9714 20.922 6.93705C20.7948 6.90269 20.662 6.89372 20.5314 6.91066C20.4007 6.92761 20.2746 6.97012 20.1604 7.03578L18.0004 8.29578L18.3004 7.18578C18.3397 7.05747 18.3528 6.92255 18.3389 6.78906C18.325 6.65558 18.2844 6.52626 18.2194 6.40881C18.1545 6.29136 18.0666 6.18818 17.9609 6.10543C17.8552 6.02267 17.734 5.96203 17.6044 5.92712C17.4748 5.8922 17.3396 5.88373 17.2066 5.9022C17.0737 5.92068 16.9458 5.96572 16.8307 6.03465C16.7155 6.10357 16.6154 6.19497 16.5363 6.3034C16.4573 6.41183 16.4008 6.53507 16.3704 6.66578L15.5504 9.66578L13.0004 11.1958V8.06578L15.0704 5.99578C15.2566 5.80842 15.3612 5.55497 15.3612 5.29078C15.3612 5.0266 15.2566 4.77314 15.0704 4.58578C14.9774 4.49205 14.8668 4.41766 14.7449 4.36689C14.6231 4.31612 14.4924 4.28998 14.3604 4.28998C14.2283 4.28998 14.0976 4.31612 13.9758 4.36689C13.8539 4.41766 13.7433 4.49205 13.6504 4.58578L13.0004 5.23578V2.92578C13.0004 2.66056 12.895 2.40621 12.7075 2.21867C12.5199 2.03114 12.2656 1.92578 12.0004 1.92578C11.7351 1.92578 11.4808 2.03114 11.2933 2.21867C11.1057 2.40621 11.0004 2.66056 11.0004 2.92578V5.39578L10.1904 4.58578C10.0974 4.49205 9.98679 4.41766 9.86493 4.36689C9.74308 4.31612 9.61237 4.28998 9.48036 4.28998C9.34835 4.28998 9.21764 4.31612 9.09578 4.36689C8.97392 4.41766 8.86332 4.49205 8.77036 4.58578C8.58411 4.77314 8.47957 5.0266 8.47957 5.29078C8.47957 5.55497 8.58411 5.80842 8.77036 5.99578L11.0004 8.22578V11.2258L8.43036 9.70578L7.61036 6.70578C7.57991 6.57507 7.52346 6.45183 7.44437 6.3434C7.36528 6.23497 7.26518 6.14357 7.15003 6.07465C7.03487 6.00572 6.90702 5.96068 6.77409 5.9422C6.64116 5.92373 6.50587 5.9322 6.37629 5.96712C6.2467 6.00203 6.12547 6.06267 6.01981 6.14543C5.91416 6.22818 5.82624 6.33136 5.7613 6.44881C5.69636 6.56626 5.65573 6.69558 5.64182 6.82906C5.62792 6.96255 5.64102 7.09747 5.68036 7.22578L6.00036 8.29578L3.84036 7.05578C3.72611 6.99012 3.60004 6.94761 3.46936 6.93066C3.33868 6.91372 3.20594 6.92269 3.07873 6.95705C2.95151 6.9914 2.83231 7.05048 2.72792 7.13091C2.62354 7.21133 2.53602 7.31153 2.47036 7.42578C2.4047 7.54003 2.36218 7.6661 2.34524 7.79678C2.3283 7.92746 2.33726 8.06019 2.37162 8.18741C2.44101 8.44434 2.60962 8.66317 2.84036 8.79578L4.84036 9.92578L4.00036 10.1858C3.73514 10.2203 3.49448 10.3587 3.33133 10.5706C3.16817 10.7825 3.09588 11.0506 3.13036 11.3158C3.16484 11.581 3.30326 11.8217 3.51518 11.9848C3.72709 12.148 3.99514 12.2203 4.26036 12.1858H4.52036L7.34036 11.4258L10.0004 12.9258L7.29036 14.4958L4.47036 13.7358C4.33804 13.6866 4.19682 13.6661 4.05598 13.6754C3.91515 13.6848 3.77789 13.7239 3.65323 13.7901C3.52857 13.8563 3.41934 13.9481 3.33272 14.0595C3.2461 14.171 3.18405 14.2995 3.15065 14.4366C3.11726 14.5738 3.11327 14.7164 3.13896 14.8552C3.16464 14.994 3.21941 15.1258 3.29968 15.2419C3.37994 15.358 3.48387 15.4558 3.60464 15.5288C3.7254 15.6019 3.86026 15.6486 4.00036 15.6658L4.89036 15.9058L2.89036 17.0558C2.65962 17.1884 2.49101 17.4072 2.42162 17.6642C2.35223 17.9211 2.38775 18.195 2.52036 18.4258C2.65297 18.6565 2.8718 18.8251 3.12873 18.8945C3.38565 18.9639 3.65962 18.9284 3.89036 18.7958L6.00036 17.5558L5.70036 18.6658C5.66072 18.7938 5.64721 18.9285 5.66063 19.0618C5.67406 19.1951 5.71414 19.3244 5.77851 19.4419C5.84287 19.5594 5.9302 19.6628 6.03531 19.746C6.14041 19.8291 6.26116 19.8902 6.39036 19.9258C6.47675 19.9356 6.56397 19.9356 6.65036 19.9258C6.87612 19.9335 7.09785 19.8646 7.27943 19.7302C7.46102 19.5958 7.59176 19.4039 7.65036 19.1858L8.47036 16.1858L11.0004 14.6558V17.7858L8.93036 19.8558C8.74411 20.0431 8.63956 20.2966 8.63956 20.5608C8.63956 20.825 8.74411 21.0784 8.93036 21.2658C9.02297 21.3603 9.13342 21.4354 9.25529 21.4869C9.37717 21.5384 9.50805 21.5652 9.64036 21.5658C9.77267 21.5652 9.90355 21.5384 10.0254 21.4869C10.1473 21.4354 10.2577 21.3603 10.3504 21.2658L11.0004 20.6158V22.9258C11.0004 23.191 11.1057 23.4454 11.2933 23.6329C11.4808 23.8204 11.7351 23.9258 12.0004 23.9258C12.2656 23.9258 12.5199 23.8204 12.7075 23.6329C12.895 23.4454 13.0004 23.191 13.0004 22.9258V20.4558L13.8104 21.2658C13.9033 21.3595 14.0139 21.4339 14.1358 21.4847C14.2576 21.5354 14.3883 21.5616 14.5204 21.5616C14.6524 21.5616 14.7831 21.5354 14.9049 21.4847C15.0268 21.4339 15.1374 21.3595 15.2304 21.2658C15.4166 21.0784 15.5212 20.825 15.5212 20.5608C15.5212 20.2966 15.4166 20.0431 15.2304 19.8558L13.0004 17.6258V14.6258L15.5704 16.1158L16.3904 19.1158C16.449 19.3339 16.5797 19.5258 16.7613 19.6602C16.9429 19.7946 17.1646 19.8635 17.3904 19.8558C17.4767 19.8656 17.564 19.8656 17.6504 19.8558C17.778 19.8221 17.8978 19.7635 18.0027 19.6834C18.1076 19.6032 18.1956 19.5031 18.2616 19.3887C18.3276 19.2744 18.3703 19.1481 18.3873 19.0171C18.4042 18.8862 18.3951 18.7532 18.3604 18.6258L18.0004 17.5558L20.1404 18.7958C20.2546 18.8614 20.3807 18.904 20.5114 18.9209C20.642 18.9378 20.7748 18.9289 20.902 18.8945C21.0292 18.8602 21.1484 18.8011 21.2528 18.7207C21.3572 18.6402 21.4447 18.54 21.5104 18.4258C21.576 18.3115 21.6185 18.1855 21.6355 18.0548C21.6524 17.9241 21.6435 17.7914 21.6091 17.6642C21.5747 17.5369 21.5157 17.4177 21.4352 17.3133C21.3548 17.209 21.2546 17.1214 21.1404 17.0558H21.1604Z" fill="#404040" fill-opacity="0.8"/>
</svg>
