<svg width="14" height="18" viewBox="0 0 14 18" fill="none" xmlns="http://www.w3.org/2000/svg">
<path fill-rule="evenodd" clip-rule="evenodd" d="M12.9379 15.1756L3.56294 8.92556L12.9379 2.67556C13.0611 2.59349 13.1668 2.48797 13.2491 2.36502C13.3315 2.24208 13.3888 2.10413 13.4178 1.95903C13.4468 1.81394 13.447 1.66456 13.4183 1.5194C13.3895 1.37425 13.3325 1.23618 13.2504 1.11306C13.1684 0.989949 13.0628 0.884206 12.9399 0.801873C12.817 0.719539 12.679 0.662227 12.5339 0.633209C12.3888 0.60419 12.2394 0.604034 12.0943 0.632749C11.9491 0.661463 11.8111 0.718487 11.6879 0.800563L1.06044 7.88556C0.88924 7.99972 0.74887 8.15437 0.651786 8.33579C0.554702 8.51721 0.503906 8.7198 0.503906 8.92556C0.503906 9.13133 0.554702 9.33391 0.651786 9.51534C0.74887 9.69676 0.88924 9.85141 1.06044 9.96556L11.6879 17.0506C11.8111 17.1326 11.9491 17.1897 12.0943 17.2184C12.2394 17.2471 12.3888 17.2469 12.5339 17.2179C12.679 17.1889 12.817 17.1316 12.9399 17.0493C13.0628 16.9669 13.1684 16.8612 13.2504 16.7381C13.3325 16.615 13.3895 16.4769 13.4183 16.3317C13.447 16.1866 13.4468 16.0372 13.4178 15.8921C13.3888 15.747 13.3315 15.609 13.2491 15.4861C13.1668 15.3632 13.0611 15.2576 12.9379 15.1756Z" fill="#F77E23"/>
</svg>
