<svg width="14" height="18" viewBox="0 0 14 18" fill="none" xmlns="http://www.w3.org/2000/svg">
<path fill-rule="evenodd" clip-rule="evenodd" d="M1.06206 15.1756L10.4371 8.92556L1.06206 2.67556C0.938949 2.59349 0.833205 2.48797 0.750872 2.36502C0.668538 2.24208 0.611226 2.10413 0.582208 1.95903C0.553189 1.81394 0.553035 1.66456 0.58175 1.5194C0.610464 1.37425 0.667487 1.23618 0.749563 1.11306C0.831639 0.989949 0.93716 0.884206 1.0601 0.801873C1.18305 0.719539 1.321 0.662227 1.46609 0.633209C1.61118 0.60419 1.76057 0.604034 1.90572 0.632749C2.05087 0.661463 2.18895 0.718487 2.31206 0.800563L12.9396 7.88556C13.1108 7.99972 13.2511 8.15437 13.3482 8.33579C13.4453 8.51721 13.4961 8.7198 13.4961 8.92556C13.4961 9.13133 13.4453 9.33391 13.3482 9.51534C13.2511 9.69676 13.1108 9.85141 12.9396 9.96556L2.31206 17.0506C2.18895 17.1326 2.05087 17.1897 1.90572 17.2184C1.76057 17.2471 1.61118 17.2469 1.46609 17.2179C1.321 17.1889 1.18305 17.1316 1.0601 17.0493C0.93716 16.9669 0.831639 16.8612 0.749563 16.7381C0.667487 16.615 0.610464 16.4769 0.58175 16.3317C0.553035 16.1866 0.553189 16.0372 0.582208 15.8921C0.611226 15.747 0.668538 15.609 0.750872 15.4861C0.833205 15.3632 0.938949 15.2576 1.06206 15.1756Z" fill="#F77E23"/>
</svg>
